PathFileType	4	(X/Y/Z)	OpenSim_Sub01_CSBaseline_Gyro.trc
DataRate	CameraRate	NumFrames	NumMarkers	Units	OrigDataRate	OrigDataStartFrame	OrigNumFrames
100	100	23	8	m	100	1488	5950
Frame#	Time	torso_imu_offset_imu	pelvis_imu_offset_imu	tibia_r_imu_offset_imu	femur_r_imu_offset_imu	tibia_l_imu_offset_imu	femur_l_imu_offset_imu	toes_r_imu_offset_imu	toes_l_imu_offset_imu
				X1	Y1	Z1	X2	Y2	Z2	X3	Y3	Z3	X4	Y4	Z4	X5	Y5	Z5	X6	Y6	Z6	X7	Y7	Z7	X8		Y8	Z8	

1488	14.87000000	0.10981976	0.05372153	0.18281531	0.43278185	-0.36169759	-0.00792780	-0.38522053	-0.49280339	-1.16324754	1.96899982	0.02204790	-1.07966863	0.95764778	0.52393413	2.46495128	0.07771042	1.12317267	-0.98240981	0.19675799	-0.33040732	-0.14928116	-0.07928893	-6.13063609	0.95094017
1489	14.88000000	0.21459576	0.06387339	0.17548841	0.61443593	-0.27751759	-0.05399096	-0.51236711	-0.47127136	-1.03213829	0.76923012	0.01921876	-1.30180458	0.94599711	0.47177810	2.51274055	0.24444813	1.33203342	-1.12923524	0.18870198	-0.21227706	-0.13979244	-0.07296724	-6.25212185	1.05839361
1490	14.89000000	0.33144673	0.07124658	0.19474400	0.75432085	-0.16602021	-0.07199996	-0.44515792	-0.47597674	-1.06037191	-0.30869278	-0.08108650	-1.38990792	0.86035063	0.39710706	2.55345700	0.44739952	1.53480331	-1.30313649	0.10116422	-0.15849937	-0.12243203	-0.00180108	-6.04334320	1.08327692
1491	14.90000000	0.44394255	0.07080783	0.23722131	0.85755767	-0.04871712	-0.04783225	-0.23607545	-0.44664737	-1.07220245	-0.90977507	-0.14500684	-1.34859991	0.75336061	0.34530296	2.59223759	0.66739008	1.67172566	-1.47160037	0.01067256	-0.14112505	-0.09072807	0.07822676	-5.62864366	1.11216028
1492	14.91000000	0.54238877	0.05835158	0.29728795	0.92650244	0.05665312	0.02167749	0.06125320	-0.35789654	-0.96483810	-0.87972224	-0.09819072	-1.21517611	0.62804020	0.33438476	2.62827910	0.88517635	1.71076355	-1.61778249	-0.03696254	-0.13962822	-0.04205105	0.16703591	-5.11335401	1.19441879
1493	14.92000000	0.63221402	0.03149343	0.36441093	0.95654037	0.14094930	0.11515192	0.39059827	-0.26358955	-0.80208243	-0.51116121	-0.00173474	-1.09928406	0.37525100	0.32078197	2.64744566	1.08158863	1.68235101	-1.76056656	-0.06691559	-0.15170376	0.01759709	0.39045441	-4.55724882	1.29464191
1494	14.93000000	0.71975671	-0.01118591	0.42814182	0.94295075	0.19665221	0.20857220	0.69213222	-0.22206444	-0.66555468	-0.13710056	0.07049001	-1.10641290	-0.10193745	0.25888504	2.63114112	1.23871639	1.62376141	-1.91854711	-0.11066710	-0.17673661	0.08065449	0.85330370	-4.00033517	1.36729653
1495	14.94000000	0.79962259	-0.06368687	0.48575026	0.88965636	0.22097886	0.28493184	0.87252077	-0.22713067	-0.58808706	0.11684983	0.10193439	-1.19805718	-0.61776644	0.16806527	2.53334689	1.35154572	1.55561142	-2.05742628	-0.16564294	-0.20610717	0.13551265	1.26766541	-3.34218370	1.38078108
1496	14.95000000	0.85951837	-0.11564658	0.53904467	0.80569880	0.21395277	0.33136766	0.81905617	-0.23461441	-0.57367461	0.24753257	0.10984090	-1.25103819	-0.82046362	0.10588246	2.29205621	1.42265431	1.48867668	-2.11189300	-0.20921876	-0.22650266	0.16820961	1.11569953	-2.40031262	1.31180532
1497	14.96000000	0.89185419	-0.15950738	0.58682702	0.70435023	0.17826500	0.33641575	0.50224235	-0.21790164	-0.61419720	0.27422005	0.10652814	-1.19954730	-0.51676241	0.09928961	1.88525232	1.45118487	1.43053683	-2.05659721	-0.22703775	-0.23070468	0.17193652	0.25261164	-1.16024371	1.15678614
1498	14.97000000	0.89973377	-0.19409644	0.62106009	0.60817466	0.12247776	0.29161497	0.07880941	-0.19065428	-0.67533409	0.26270018	0.09235379	-1.10822577	0.12814730	0.10584635	1.38060790	1.42839676	1.38192408	-1.95624706	-0.22376830	-0.22522835	0.15591289	-0.62739726	0.01527390	0.95587257
1499	14.98000000	0.88759685	-0.21887900	0.63347181	0.53868622	0.05614674	0.19121704	-0.27771284	-0.17056540	-0.72094417	0.28048567	0.06659019	-1.05283570	0.89836786	0.07721356	0.85453648	1.34654533	1.34098416	-1.88203441	-0.20667327	-0.21787941	0.13103375	-0.79392634	0.75168225	0.75362077
1500	14.99000000	0.85873813	-0.23098804	0.62291852	0.49358137	-0.00911677	0.05328603	-0.48049176	-0.16068455	-0.73269187	0.34792035	0.03401288	-1.04172664	1.55522539	0.00108772	0.34840585	1.21917970	1.28872549	-1.84628883	-0.18322403	-0.21060328	0.10310189	-0.31481466	1.07944470	0.57899709
1501	15.00000000	0.81578363	-0.22620497	0.59246259	0.45653518	-0.06051189	-0.09010979	-0.49404200	-0.15542984	-0.70280747	0.45745974	0.00264279	-1.04353297	1.84733523	-0.11359002	-0.11713381	1.07234739	1.19613788	-1.82663102	-0.16100239	-0.20189257	0.07491775	0.27201073	1.26757677	0.45167997
1502	15.01000000	0.76278900	-0.20543571	0.54534387	0.41736291	-0.09012121	-0.21600486	-0.32606959	-0.15067884	-0.63670170	0.58822902	-0.01970548	-1.03795054	1.67705339	-0.26065842	-0.53070196	0.91872885	1.05347550	-1.80380033	-0.14491258	-0.19113567	0.04962252	0.59863892	1.50578097	0.37198771
1503	15.02000000	0.70701912	-0.18105946	0.48507697	0.37998442	-0.10095801	-0.32214814	-0.07917132	-0.14581465	-0.56888962	0.69041404	-0.02577148	-1.03050163	1.29013912	-0.44077163	-0.90100371	0.74081862	0.89426528	-1.76649546	-0.13388132	-0.17981930	0.03120418	0.69006739	1.79991177	0.29730885
1504	15.03000000	0.65554929	-0.16576403	0.41580470	0.34939779	-0.09709876	-0.40810808	0.13613629	-0.14077809	-0.53414089	0.71389842	-0.01003177	-1.02949840	0.95736434	-0.65129743	-1.24002559	0.51966947	0.75555918	-1.70499978	-0.12606114	-0.16967236	0.02314027	0.62644657	2.13108042	0.18255832
1505	15.04000000	0.60901485	-0.15939681	0.34777121	0.32202987	-0.07832762	-0.46330246	0.26012498	-0.13637144	-0.52919880	0.64586982	0.01587834	-1.03597888	0.72803832	-0.84615594	-1.56557348	0.26361496	0.65035437	-1.61483783	-0.11996140	-0.16199302	0.02245594	0.50846906	2.48176758	0.01708083
1506	15.05000000	0.56425884	-0.15424187	0.29479123	0.28926942	-0.04191736	-0.47122825	0.26314960	-0.13391854	-0.52841731	0.49557012	0.03024828	-1.04669024	0.52110473	-0.95382749	-1.89885055	-0.00292648	0.57744449	-1.49466321	-0.11429674	-0.15781877	0.02237576	0.44868520	2.83526903	-0.18941401
1507	15.06000000	0.51954390	-0.14499029	0.26460692	0.24634924	0.01046815	-0.42963994	0.14156247	-0.13757615	-0.51522616	0.28245892	0.02129923	-1.05841768	0.31433092	-0.94315258	-2.25350754	-0.25731841	0.53278374	-1.35101116	-0.10666080	-0.15678607	0.01735026	0.50444966	3.17643631	-0.41569666
1508	15.07000000	0.47640961	-0.13192190	0.25130786	0.19722454	0.06729492	-0.36827513	-0.05114445	-0.15780714	-0.49395134	0.04815831	-0.00029671	-1.06815505	0.22049531	-0.87375983	-2.62624573	-0.48136428	0.50640049	-1.20791291	-0.09214005	-0.15541295	0.00467503	0.60961891	3.49356864	-0.61542062
1509	15.08000000	0.43646082	-0.11615927	0.24728036	0.14680342	0.11670112	-0.31894043	-0.25474914	-0.20357860	-0.47160018	-0.16476768	-0.02140787	-1.07268579	0.35026811	-0.81365980	-3.01022130	-0.65826018	0.48671270	-1.08921216	-0.06613442	-0.14992532	-0.01767225	0.68724179	3.77710040	-0.74338818
1510	15.09000000	0.39739914	-0.09971812	0.24639695	0.09764701	0.15722785	-0.29012675	-0.41936679	-0.25960755	-0.45367249	-0.33498838	-0.03487207	-1.06632958	0.60396467	-0.79057738	-3.38566817	-0.77937682	0.45379058	-0.99237788	-0.03078172	-0.13788931	-0.04864620	0.72130225	4.03469256	-0.80134526
